<mxfile host="app.diagrams.net" agent="Mozilla/5.0 (Windows NT 10.0; Win64; x64) AppleWebKit/537.36 (KHTML, like Gecko) Chrome/128.0.0.0 Safari/537.36" version="24.7.16">
  <diagram name="Page-1" id="13e1069c-82ec-6db2-03f1-153e76fe0fe0">
    <mxGraphModel grid="0" page="1" gridSize="10" guides="1" tooltips="1" connect="1" arrows="1" fold="1" pageScale="1" pageWidth="1100" pageHeight="850" background="none" math="0" shadow="0">
      <root>
        <mxCell id="0" />
        <mxCell id="1" parent="0" />
        <mxCell id="7baba1c4bc27f4b0-2" value="&lt;font style=&quot;font-size: 13px;&quot;&gt;Login Form&lt;/font&gt;" style="shape=umlLifeline;perimeter=lifelinePerimeter;whiteSpace=wrap;html=1;container=1;collapsible=0;recursiveResize=0;outlineConnect=0;rounded=1;shadow=0;comic=0;labelBackgroundColor=none;strokeWidth=1;fontFamily=Verdana;fontSize=12;align=center;" vertex="1" parent="1">
          <mxGeometry x="238" y="74" width="100" height="776" as="geometry" />
        </mxCell>
        <mxCell id="RgTBoj1O5FEci6K41apd-18" value="" style="html=1;points=[[0,0,0,0,5],[0,1,0,0,-5],[1,0,0,0,5],[1,1,0,0,-5]];perimeter=orthogonalPerimeter;outlineConnect=0;targetShapes=umlLifeline;portConstraint=eastwest;newEdgeStyle={&quot;curved&quot;:0,&quot;rounded&quot;:0};" vertex="1" parent="7baba1c4bc27f4b0-2">
          <mxGeometry x="45" y="508" width="10" height="103" as="geometry" />
        </mxCell>
        <mxCell id="RgTBoj1O5FEci6K41apd-29" value="&lt;font style=&quot;font-size: 13px;&quot;&gt;Fill Personal Info&lt;/font&gt;" style="html=1;verticalAlign=bottom;endArrow=block;curved=0;rounded=0;" edge="1" parent="7baba1c4bc27f4b0-2">
          <mxGeometry width="80" relative="1" as="geometry">
            <mxPoint x="-185.0033333333334" y="695.17" as="sourcePoint" />
            <mxPoint x="176.32999999999998" y="695.17" as="targetPoint" />
          </mxGeometry>
        </mxCell>
        <mxCell id="7baba1c4bc27f4b0-3" value="&lt;font style=&quot;font-size: 13px;&quot;&gt;Profile Edit Form&lt;/font&gt;&amp;nbsp;" style="shape=umlLifeline;perimeter=lifelinePerimeter;whiteSpace=wrap;html=1;container=1;collapsible=0;recursiveResize=0;outlineConnect=0;rounded=1;shadow=0;comic=0;labelBackgroundColor=none;strokeWidth=1;fontFamily=Verdana;fontSize=12;align=center;" vertex="1" parent="1">
          <mxGeometry x="366" y="74" width="100" height="777" as="geometry" />
        </mxCell>
        <mxCell id="RgTBoj1O5FEci6K41apd-21" value="&lt;font style=&quot;font-size: 13px;&quot;&gt;Login Successful&lt;/font&gt;" style="html=1;verticalAlign=bottom;endArrow=open;dashed=1;endSize=8;curved=0;rounded=0;exitX=0.017;exitY=0.802;exitDx=0;exitDy=0;exitPerimeter=0;" edge="1" parent="7baba1c4bc27f4b0-3">
          <mxGeometry x="0.0639" y="18" relative="1" as="geometry">
            <mxPoint x="305.0000000000001" y="585.0040000000001" as="sourcePoint" />
            <mxPoint x="-78.50333333333339" y="585.0040000000001" as="targetPoint" />
            <mxPoint as="offset" />
          </mxGeometry>
        </mxCell>
        <mxCell id="RgTBoj1O5FEci6K41apd-20" value="&lt;font style=&quot;font-size: 13px;&quot;&gt;Submit Login data&lt;/font&gt;" style="html=1;verticalAlign=bottom;endArrow=block;curved=0;rounded=0;" edge="1" parent="7baba1c4bc27f4b0-3">
          <mxGeometry x="-0.029" y="9" width="80" relative="1" as="geometry">
            <mxPoint x="-74" y="559.08" as="sourcePoint" />
            <mxPoint x="305" y="559.08" as="targetPoint" />
            <mxPoint as="offset" />
          </mxGeometry>
        </mxCell>
        <mxCell id="RgTBoj1O5FEci6K41apd-22" value="" style="html=1;points=[[0,0,0,0,5],[0,1,0,0,-5],[1,0,0,0,5],[1,1,0,0,-5]];perimeter=orthogonalPerimeter;outlineConnect=0;targetShapes=umlLifeline;portConstraint=eastwest;newEdgeStyle={&quot;curved&quot;:0,&quot;rounded&quot;:0};" vertex="1" parent="7baba1c4bc27f4b0-3">
          <mxGeometry x="45" y="678" width="10" height="98" as="geometry" />
        </mxCell>
        <mxCell id="7baba1c4bc27f4b0-4" value="&lt;font style=&quot;font-size: 13px;&quot;&gt;User Registration Controller&lt;/font&gt;" style="shape=umlLifeline;perimeter=lifelinePerimeter;whiteSpace=wrap;html=1;container=1;collapsible=0;recursiveResize=0;outlineConnect=0;rounded=1;shadow=0;comic=0;labelBackgroundColor=none;strokeWidth=1;fontFamily=Verdana;fontSize=12;align=center;" vertex="1" parent="1">
          <mxGeometry x="485.5" y="74" width="129" height="777" as="geometry" />
        </mxCell>
        <mxCell id="7baba1c4bc27f4b0-16" value="" style="html=1;points=[];perimeter=orthogonalPerimeter;rounded=0;shadow=0;comic=0;labelBackgroundColor=none;strokeWidth=1;fontFamily=Verdana;fontSize=12;align=center;" vertex="1" parent="7baba1c4bc27f4b0-4">
          <mxGeometry x="59.5" y="96" width="10" height="300" as="geometry" />
        </mxCell>
        <mxCell id="RgTBoj1O5FEci6K41apd-27" value="&lt;font style=&quot;font-size: 13px;&quot;&gt;Submit Personal Info&lt;/font&gt;" style="html=1;verticalAlign=bottom;endArrow=block;curved=0;rounded=0;" edge="1" parent="7baba1c4bc27f4b0-4" source="7baba1c4bc27f4b0-3">
          <mxGeometry width="80" relative="1" as="geometry">
            <mxPoint x="80.5" y="712" as="sourcePoint" />
            <mxPoint x="293.5" y="714" as="targetPoint" />
          </mxGeometry>
        </mxCell>
        <mxCell id="7baba1c4bc27f4b0-5" value="User Authorization Controller" style="shape=umlLifeline;perimeter=lifelinePerimeter;whiteSpace=wrap;html=1;container=1;collapsible=0;recursiveResize=0;outlineConnect=0;rounded=1;shadow=0;comic=0;labelBackgroundColor=none;strokeWidth=1;fontFamily=Verdana;fontSize=12;align=center;" vertex="1" parent="1">
          <mxGeometry x="626" y="74" width="100" height="777" as="geometry" />
        </mxCell>
        <mxCell id="7baba1c4bc27f4b0-19" value="" style="html=1;points=[];perimeter=orthogonalPerimeter;rounded=0;shadow=0;comic=0;labelBackgroundColor=none;strokeWidth=1;fontFamily=Verdana;fontSize=12;align=center;" vertex="1" parent="7baba1c4bc27f4b0-5">
          <mxGeometry x="45" y="116" width="10" height="75" as="geometry" />
        </mxCell>
        <mxCell id="RgTBoj1O5FEci6K41apd-8" value="Create New Object" style="html=1;verticalAlign=bottom;endArrow=block;labelBackgroundColor=none;fontFamily=Verdana;fontSize=12;edgeStyle=elbowEdgeStyle;elbow=vertical;" edge="1" parent="7baba1c4bc27f4b0-5" target="7baba1c4bc27f4b0-7">
          <mxGeometry relative="1" as="geometry">
            <mxPoint x="-71" y="213" as="sourcePoint" />
            <mxPoint x="45" y="230.40999999999997" as="targetPoint" />
            <mxPoint as="offset" />
            <Array as="points">
              <mxPoint x="172" y="213" />
            </Array>
          </mxGeometry>
        </mxCell>
        <mxCell id="RgTBoj1O5FEci6K41apd-16" value="Return Created User And Profile" style="html=1;verticalAlign=bottom;endArrow=open;dashed=1;endSize=8;labelBackgroundColor=none;fontFamily=Verdana;fontSize=12;edgeStyle=elbowEdgeStyle;elbow=vertical;" edge="1" parent="7baba1c4bc27f4b0-5">
          <mxGeometry relative="1" as="geometry">
            <mxPoint x="-71" y="328" as="targetPoint" />
            <Array as="points">
              <mxPoint x="154" y="328" />
              <mxPoint x="184" y="328" />
            </Array>
            <mxPoint x="155" y="328" as="sourcePoint" />
          </mxGeometry>
        </mxCell>
        <mxCell id="7baba1c4bc27f4b0-22" value="" style="html=1;points=[];perimeter=orthogonalPerimeter;rounded=0;shadow=0;comic=0;labelBackgroundColor=none;strokeWidth=1;fontFamily=Verdana;fontSize=12;align=center;" vertex="1" parent="7baba1c4bc27f4b0-5">
          <mxGeometry x="45" y="514" width="10" height="97" as="geometry" />
        </mxCell>
        <mxCell id="7baba1c4bc27f4b0-20" value="Email Verification" style="html=1;verticalAlign=bottom;endArrow=block;entryX=0;entryY=0;labelBackgroundColor=none;fontFamily=Verdana;fontSize=12;edgeStyle=elbowEdgeStyle;elbow=vertical;" edge="1" parent="7baba1c4bc27f4b0-5">
          <mxGeometry relative="1" as="geometry">
            <mxPoint x="-69" y="163" as="sourcePoint" />
            <mxPoint x="47" y="163" as="targetPoint" />
            <mxPoint as="offset" />
          </mxGeometry>
        </mxCell>
        <mxCell id="7baba1c4bc27f4b0-6" value="Profile Management Controller" style="shape=umlLifeline;perimeter=lifelinePerimeter;whiteSpace=wrap;html=1;container=1;collapsible=0;recursiveResize=0;outlineConnect=0;rounded=1;shadow=0;comic=0;labelBackgroundColor=none;strokeWidth=1;fontFamily=Verdana;fontSize=12;align=center;" vertex="1" parent="1">
          <mxGeometry x="738" y="74" width="100" height="777" as="geometry" />
        </mxCell>
        <mxCell id="RgTBoj1O5FEci6K41apd-9" value="" style="html=1;points=[];perimeter=orthogonalPerimeter;rounded=0;shadow=0;comic=0;labelBackgroundColor=none;strokeWidth=1;fontFamily=Verdana;fontSize=12;align=center;" vertex="1" parent="7baba1c4bc27f4b0-6">
          <mxGeometry x="45" y="243" width="10" height="94" as="geometry" />
        </mxCell>
        <mxCell id="RgTBoj1O5FEci6K41apd-23" value="" style="html=1;points=[[0,0,0,0,5],[0,1,0,0,-5],[1,0,0,0,5],[1,1,0,0,-5]];perimeter=orthogonalPerimeter;outlineConnect=0;targetShapes=umlLifeline;portConstraint=eastwest;newEdgeStyle={&quot;curved&quot;:0,&quot;rounded&quot;:0};" vertex="1" parent="7baba1c4bc27f4b0-6">
          <mxGeometry x="45" y="696" width="10" height="80" as="geometry" />
        </mxCell>
        <mxCell id="7baba1c4bc27f4b0-7" value="&lt;font style=&quot;font-size: 13px;&quot;&gt;User&lt;/font&gt;" style="shape=umlLifeline;perimeter=lifelinePerimeter;whiteSpace=wrap;html=1;container=1;collapsible=0;recursiveResize=0;outlineConnect=0;rounded=1;shadow=0;comic=0;labelBackgroundColor=none;strokeWidth=1;fontFamily=Verdana;fontSize=12;align=center;" vertex="1" parent="1">
          <mxGeometry x="866" y="74" width="100" height="775" as="geometry" />
        </mxCell>
        <mxCell id="RgTBoj1O5FEci6K41apd-7" value="" style="html=1;points=[];perimeter=orthogonalPerimeter;rounded=0;shadow=0;comic=0;labelBackgroundColor=none;strokeWidth=1;fontFamily=Verdana;fontSize=12;align=center;" vertex="1" parent="7baba1c4bc27f4b0-7">
          <mxGeometry x="45" y="212" width="10" height="47" as="geometry" />
        </mxCell>
        <mxCell id="RgTBoj1O5FEci6K41apd-10" value="&lt;span style=&quot;font-size: 11px;&quot;&gt;Return Created&lt;/span&gt;&lt;div&gt;&lt;span style=&quot;font-size: 11px;&quot;&gt;Views&lt;/span&gt;&lt;/div&gt;" style="html=1;verticalAlign=bottom;endArrow=open;dashed=1;endSize=8;labelBackgroundColor=none;fontFamily=Verdana;fontSize=12;edgeStyle=elbowEdgeStyle;elbow=vertical;" edge="1" parent="7baba1c4bc27f4b0-7" target="7baba1c4bc27f4b0-6">
          <mxGeometry x="-0.037" y="14" relative="1" as="geometry">
            <mxPoint x="-56" y="253" as="targetPoint" />
            <Array as="points">
              <mxPoint x="51" y="253" />
              <mxPoint x="81" y="253" />
            </Array>
            <mxPoint x="52" y="253" as="sourcePoint" />
            <mxPoint as="offset" />
          </mxGeometry>
        </mxCell>
        <mxCell id="7baba1c4bc27f4b0-8" value="&lt;font style=&quot;font-size: 13px;&quot;&gt;Registration Form&lt;/font&gt;" style="shape=umlLifeline;perimeter=lifelinePerimeter;whiteSpace=wrap;html=1;container=1;collapsible=0;recursiveResize=0;outlineConnect=0;rounded=1;shadow=0;comic=0;labelBackgroundColor=none;strokeWidth=1;fontFamily=Verdana;fontSize=12;align=center;" vertex="1" parent="1">
          <mxGeometry x="121" y="74" width="100" height="776" as="geometry" />
        </mxCell>
        <mxCell id="7baba1c4bc27f4b0-9" value="" style="html=1;points=[];perimeter=orthogonalPerimeter;rounded=0;shadow=0;comic=0;labelBackgroundColor=none;strokeWidth=1;fontFamily=Verdana;fontSize=12;align=center;" vertex="1" parent="7baba1c4bc27f4b0-8">
          <mxGeometry x="45" y="96" width="10" height="308" as="geometry" />
        </mxCell>
        <mxCell id="RgTBoj1O5FEci6K41apd-19" value="&lt;font style=&quot;font-size: 13px;&quot;&gt;Display Login Successful&lt;/font&gt;" style="html=1;verticalAlign=bottom;endArrow=open;dashed=1;endSize=8;curved=0;rounded=0;" edge="1" parent="7baba1c4bc27f4b0-8">
          <mxGeometry relative="1" as="geometry">
            <mxPoint x="166.5000000000001" y="599" as="sourcePoint" />
            <mxPoint x="-71.33333333333337" y="599" as="targetPoint" />
          </mxGeometry>
        </mxCell>
        <mxCell id="7baba1c4bc27f4b0-23" value="&lt;span style=&quot;font-size: 13px;&quot;&gt;Fill Login form&lt;/span&gt;" style="html=1;verticalAlign=bottom;endArrow=block;labelBackgroundColor=none;fontFamily=Verdana;fontSize=12;" edge="1" parent="7baba1c4bc27f4b0-8">
          <mxGeometry x="-0.0316" y="8" relative="1" as="geometry">
            <mxPoint x="-71" y="549.0000000000002" as="sourcePoint" />
            <mxPoint x="166.5000000000001" y="549.0000000000002" as="targetPoint" />
            <mxPoint as="offset" />
          </mxGeometry>
        </mxCell>
        <mxCell id="7baba1c4bc27f4b0-21" value="Send Confirmation" style="html=1;verticalAlign=bottom;endArrow=open;dashed=1;endSize=8;labelBackgroundColor=none;fontFamily=Verdana;fontSize=12;edgeStyle=elbowEdgeStyle;elbow=vertical;" edge="1" parent="1" source="7baba1c4bc27f4b0-19" target="7baba1c4bc27f4b0-16">
          <mxGeometry relative="1" as="geometry">
            <mxPoint x="650" y="306" as="targetPoint" />
            <Array as="points">
              <mxPoint x="670" y="260" />
              <mxPoint x="700" y="260" />
            </Array>
          </mxGeometry>
        </mxCell>
        <mxCell id="7baba1c4bc27f4b0-14" value="&lt;font style=&quot;font-size: 13px;&quot;&gt;Submit Registration Data&lt;/font&gt;" style="html=1;verticalAlign=bottom;endArrow=block;labelBackgroundColor=none;fontFamily=Verdana;fontSize=12;edgeStyle=elbowEdgeStyle;elbow=vertical;exitX=0.57;exitY=0.15;exitDx=0;exitDy=0;exitPerimeter=0;" edge="1" parent="1">
          <mxGeometry x="-0.0427" y="7" relative="1" as="geometry">
            <mxPoint x="178" y="219.43" as="sourcePoint" />
            <mxPoint x="549.5000000000002" y="218.99666666666673" as="targetPoint" />
            <mxPoint as="offset" />
          </mxGeometry>
        </mxCell>
        <mxCell id="RgTBoj1O5FEci6K41apd-1" value="" style="shape=umlLifeline;perimeter=lifelinePerimeter;whiteSpace=wrap;html=1;container=1;dropTarget=0;collapsible=0;recursiveResize=0;outlineConnect=0;portConstraint=eastwest;newEdgeStyle={&quot;curved&quot;:0,&quot;rounded&quot;:0};participant=umlActor;size=40;" vertex="1" parent="1">
          <mxGeometry x="40" y="82" width="20" height="771" as="geometry" />
        </mxCell>
        <mxCell id="RgTBoj1O5FEci6K41apd-2" value="&lt;font style=&quot;font-size: 16px;&quot;&gt;User&lt;/font&gt;" style="text;html=1;align=center;verticalAlign=middle;resizable=0;points=[];autosize=1;strokeColor=none;fillColor=none;" vertex="1" parent="1">
          <mxGeometry x="20" y="34" width="60" height="30" as="geometry" />
        </mxCell>
        <mxCell id="7baba1c4bc27f4b0-11" value="&lt;font style=&quot;font-size: 13px;&quot;&gt;Fill Registration&lt;/font&gt;&lt;div style=&quot;font-size: 13px;&quot;&gt;&lt;font style=&quot;font-size: 13px;&quot;&gt;Form&lt;/font&gt;&lt;/div&gt;" style="html=1;verticalAlign=bottom;endArrow=block;labelBackgroundColor=none;fontFamily=Verdana;fontSize=12;edgeStyle=elbowEdgeStyle;elbow=vertical;" edge="1" parent="1" target="7baba1c4bc27f4b0-8">
          <mxGeometry x="-0.0029" y="6" relative="1" as="geometry">
            <mxPoint x="48" y="214" as="sourcePoint" />
            <mxPoint x="148.43" y="214.43142857142868" as="targetPoint" />
            <mxPoint as="offset" />
          </mxGeometry>
        </mxCell>
        <mxCell id="RgTBoj1O5FEci6K41apd-3" value="&lt;font style=&quot;font-size: 12px;&quot;&gt;Display Registration&lt;/font&gt;&lt;div style=&quot;font-size: 12px;&quot;&gt;&lt;font style=&quot;font-size: 12px;&quot;&gt;done&lt;/font&gt;&lt;/div&gt;" style="html=1;verticalAlign=bottom;endArrow=open;dashed=1;endSize=8;curved=0;rounded=0;" edge="1" parent="1">
          <mxGeometry x="-0.0146" y="-7" relative="1" as="geometry">
            <mxPoint x="162.33" y="460" as="sourcePoint" />
            <mxPoint x="47.99666666666663" y="460" as="targetPoint" />
            <mxPoint as="offset" />
          </mxGeometry>
        </mxCell>
        <mxCell id="RgTBoj1O5FEci6K41apd-6" value="&lt;span style=&quot;font-size: 13px;&quot;&gt;Profile&lt;/span&gt;" style="shape=umlLifeline;perimeter=lifelinePerimeter;whiteSpace=wrap;html=1;container=1;collapsible=0;recursiveResize=0;outlineConnect=0;rounded=1;shadow=0;comic=0;labelBackgroundColor=none;strokeWidth=1;fontFamily=Verdana;fontSize=12;align=center;" vertex="1" parent="1">
          <mxGeometry x="988" y="74" width="100" height="778" as="geometry" />
        </mxCell>
        <mxCell id="RgTBoj1O5FEci6K41apd-13" value="" style="html=1;points=[];perimeter=orthogonalPerimeter;rounded=0;shadow=0;comic=0;labelBackgroundColor=none;strokeWidth=1;fontFamily=Verdana;fontSize=12;align=center;" vertex="1" parent="RgTBoj1O5FEci6K41apd-6">
          <mxGeometry x="45" y="261.5" width="10" height="68" as="geometry" />
        </mxCell>
        <mxCell id="RgTBoj1O5FEci6K41apd-14" value="Create Profile object" style="html=1;verticalAlign=bottom;endArrow=block;entryX=0;entryY=0;labelBackgroundColor=none;fontFamily=Verdana;fontSize=12;edgeStyle=elbowEdgeStyle;elbow=vertical;" edge="1" parent="RgTBoj1O5FEci6K41apd-6" source="7baba1c4bc27f4b0-6">
          <mxGeometry relative="1" as="geometry">
            <mxPoint x="-69" y="280.58000000000004" as="sourcePoint" />
            <mxPoint x="47" y="280.58000000000004" as="targetPoint" />
            <mxPoint as="offset" />
          </mxGeometry>
        </mxCell>
        <mxCell id="RgTBoj1O5FEci6K41apd-15" value="Return Created Project" style="html=1;verticalAlign=bottom;endArrow=open;dashed=1;endSize=8;labelBackgroundColor=none;fontFamily=Verdana;fontSize=12;edgeStyle=elbowEdgeStyle;elbow=vertical;" edge="1" parent="RgTBoj1O5FEci6K41apd-6" target="7baba1c4bc27f4b0-6">
          <mxGeometry relative="1" as="geometry">
            <mxPoint x="-67" y="310" as="targetPoint" />
            <Array as="points">
              <mxPoint x="48" y="310" />
              <mxPoint x="78" y="310" />
            </Array>
            <mxPoint x="49" y="310" as="sourcePoint" />
          </mxGeometry>
        </mxCell>
        <mxCell id="RgTBoj1O5FEci6K41apd-24" value="" style="html=1;points=[[0,0,0,0,5],[0,1,0,0,-5],[1,0,0,0,5],[1,1,0,0,-5]];perimeter=orthogonalPerimeter;outlineConnect=0;targetShapes=umlLifeline;portConstraint=eastwest;newEdgeStyle={&quot;curved&quot;:0,&quot;rounded&quot;:0};" vertex="1" parent="RgTBoj1O5FEci6K41apd-6">
          <mxGeometry x="45" y="696" width="10" height="80" as="geometry" />
        </mxCell>
        <mxCell id="RgTBoj1O5FEci6K41apd-17" value="&lt;font style=&quot;font-size: 13px;&quot;&gt;Registration Successful Done&lt;/font&gt;" style="html=1;verticalAlign=bottom;endArrow=open;dashed=1;endSize=8;curved=0;rounded=0;entryX=0.267;entryY=0.898;entryDx=0;entryDy=0;entryPerimeter=0;" edge="1" parent="1" source="7baba1c4bc27f4b0-4" target="7baba1c4bc27f4b0-9">
          <mxGeometry relative="1" as="geometry">
            <mxPoint x="350" y="446" as="sourcePoint" />
            <mxPoint x="270" y="446" as="targetPoint" />
          </mxGeometry>
        </mxCell>
        <mxCell id="RgTBoj1O5FEci6K41apd-28" value="&lt;font style=&quot;font-size: 13px;&quot;&gt;Profile Edited Successfully&lt;/font&gt;" style="html=1;verticalAlign=bottom;endArrow=open;dashed=1;endSize=8;curved=0;rounded=0;exitX=0;exitY=1;exitDx=0;exitDy=-5;exitPerimeter=0;" edge="1" parent="1">
          <mxGeometry x="-0.0068" y="-11" relative="1" as="geometry">
            <mxPoint x="781.5" y="831" as="sourcePoint" />
            <mxPoint x="414" y="831" as="targetPoint" />
            <mxPoint x="1" as="offset" />
          </mxGeometry>
        </mxCell>
        <mxCell id="RgTBoj1O5FEci6K41apd-30" value="&lt;font style=&quot;font-size: 13px;&quot;&gt;Display Edited Profile&lt;/font&gt;" style="html=1;verticalAlign=bottom;endArrow=open;dashed=1;endSize=8;curved=0;rounded=0;" edge="1" parent="1">
          <mxGeometry relative="1" as="geometry">
            <mxPoint x="408.33" y="845" as="sourcePoint" />
            <mxPoint x="46.99666666666663" y="845" as="targetPoint" />
          </mxGeometry>
        </mxCell>
        <mxCell id="RgTBoj1O5FEci6K41apd-26" value="&lt;font style=&quot;font-size: 13px;&quot;&gt;Return Edited Profile&lt;/font&gt;" style="html=1;verticalAlign=bottom;endArrow=open;dashed=1;endSize=8;curved=0;rounded=0;" edge="1" parent="1">
          <mxGeometry relative="1" as="geometry">
            <mxPoint x="1033.0000000000005" y="817" as="sourcePoint" />
            <mxPoint x="788.5" y="817" as="targetPoint" />
          </mxGeometry>
        </mxCell>
        <mxCell id="RgTBoj1O5FEci6K41apd-25" value="&lt;font style=&quot;font-size: 13px;&quot;&gt;Edit Profile Object&lt;/font&gt;" style="html=1;verticalAlign=bottom;endArrow=block;curved=0;rounded=0;" edge="1" parent="1">
          <mxGeometry x="-0.0468" width="80" relative="1" as="geometry">
            <mxPoint x="792" y="797" as="sourcePoint" />
            <mxPoint x="1037.5" y="797" as="targetPoint" />
            <mxPoint as="offset" />
          </mxGeometry>
        </mxCell>
        <mxCell id="yhcOLGeGNHBuv-Y8PLNs-1" value=":&lt;span style=&quot;font-family: Verdana; font-size: 13px;&quot;&gt;Registration FormUI&lt;/span&gt;" style="shape=umlBoundary;whiteSpace=wrap;html=1;" vertex="1" parent="1">
          <mxGeometry x="118" y="-1" width="91" height="65" as="geometry" />
        </mxCell>
        <mxCell id="yhcOLGeGNHBuv-Y8PLNs-2" value="&lt;span style=&quot;font-family: Verdana; font-size: 13px;&quot;&gt;:User Registration Controller&lt;/span&gt;" style="shape=umlBoundary;whiteSpace=wrap;html=1;" vertex="1" parent="1">
          <mxGeometry x="495" y="5" width="91" height="65" as="geometry" />
        </mxCell>
        <mxCell id="yhcOLGeGNHBuv-Y8PLNs-3" value=":&lt;font style=&quot;font-family: Verdana; font-size: 13px;&quot;&gt;ProfileEdit FormUI&lt;/font&gt;" style="shape=umlBoundary;whiteSpace=wrap;html=1;" vertex="1" parent="1">
          <mxGeometry x="361" y="5" width="91" height="65" as="geometry" />
        </mxCell>
        <mxCell id="yhcOLGeGNHBuv-Y8PLNs-4" value=":&lt;span style=&quot;font-family: Verdana; font-size: 13px;&quot;&gt;Login FormUI&lt;/span&gt;" style="shape=umlBoundary;whiteSpace=wrap;html=1;" vertex="1" parent="1">
          <mxGeometry x="224" width="91" height="65" as="geometry" />
        </mxCell>
        <mxCell id="yhcOLGeGNHBuv-Y8PLNs-5" value="&lt;span style=&quot;font-family: Verdana;&quot;&gt;:User Authorization Controller&lt;/span&gt;" style="ellipse;shape=umlControl;whiteSpace=wrap;html=1;" vertex="1" parent="1">
          <mxGeometry x="641" y="-4" width="70" height="71" as="geometry" />
        </mxCell>
        <mxCell id="yhcOLGeGNHBuv-Y8PLNs-6" value="&lt;span style=&quot;font-family: Verdana;&quot;&gt;:Profile Management Controller&lt;/span&gt;" style="ellipse;shape=umlControl;whiteSpace=wrap;html=1;" vertex="1" parent="1">
          <mxGeometry x="749" y="-4" width="70" height="71" as="geometry" />
        </mxCell>
        <mxCell id="yhcOLGeGNHBuv-Y8PLNs-7" value="&lt;span style=&quot;font-family: Verdana; font-size: 13px;&quot;&gt;User&lt;/span&gt;" style="ellipse;shape=umlEntity;whiteSpace=wrap;html=1;" vertex="1" parent="1">
          <mxGeometry x="870" y="-1.5" width="80" height="65.5" as="geometry" />
        </mxCell>
        <mxCell id="yhcOLGeGNHBuv-Y8PLNs-8" value="&lt;span style=&quot;font-family: Verdana; font-size: 13px;&quot;&gt;Profile&lt;/span&gt;" style="ellipse;shape=umlEntity;whiteSpace=wrap;html=1;" vertex="1" parent="1">
          <mxGeometry x="1001" y="-1.5" width="80" height="65.5" as="geometry" />
        </mxCell>
      </root>
    </mxGraphModel>
  </diagram>
</mxfile>
